<?xml version="1.0" encoding="UTF-8"?> <svg fill="#febb5e" xmlns="http://www.w3.org/2000/svg" viewBox="0 0 64 64"><path d="M24.741 59a1.001 1.001 0 0 1-.858-.488c-.711-1.189-1.713-2.251-2.774-3.374-1.727-1.828-3.513-3.719-4.128-6.331-.537-2.277.168-4.8 1.795-6.427 1.287-1.287 3.057-1.864 4.728-1.544a7.505 7.505 0 0 1 4.084 2.534c1.642-.882 3.622-1.129 5.285-.616 1.603.493 2.792 1.644 3.35 3.239a1.001 1.001 0 0 1-.614 1.274.998.998 0 0 1-1.274-.614c-.352-1.009-1.041-1.678-2.049-1.988-1.357-.417-3.112-.073-4.366.856a1.002 1.002 0 0 1-1.449-.282 5.442 5.442 0 0 0-3.383-2.447c-.966-.188-2.09.195-2.896 1.002-1.148 1.148-1.644 2.936-1.262 4.554.491 2.089 2.019 3.705 3.635 5.416.849.898 1.72 1.82 2.452 2.836 1.039-.65 2.188-1.178 3.308-1.691 2.482-1.139 4.826-2.214 5.866-4.445a.998.998 0 0 1 1.328-.484.998.998 0 0 1 .484 1.328c-1.35 2.898-4.144 4.181-6.845 5.42-1.41.646-2.741 1.258-3.811 2.069a1.005 1.005 0 0 1-.606.203z"></path><path d="M41.121 55.113c-.215 0-.426-.069-.601-.2-1.074-.808-2.395-1.412-3.792-2.053-2.527-1.158-5.14-2.355-6.603-4.922a1.001 1.001 0 0 1 .374-1.364 1.003 1.003 0 0 1 1.364.374c1.144 2.007 3.355 3.021 5.697 4.094 1.108.508 2.246 1.029 3.281 1.673.735-1.026 1.616-1.955 2.474-2.859 1.613-1.701 3.138-3.309 3.617-5.389.378-1.638-.115-3.425-1.257-4.555-.829-.819-1.926-1.194-2.942-.997a5.429 5.429 0 0 0-3.342 2.438 1.002 1.002 0 0 1-1.449.282c-1.363-1.011-3.319-1.284-4.755-.666-.763.329-1.712 1.056-1.901 2.649a1 1 0 1 1-1.986-.236c.236-1.981 1.335-3.49 3.096-4.25 1.794-.774 4.047-.619 5.876.353a7.464 7.464 0 0 1 4.046-2.526c1.701-.327 3.468.248 4.765 1.531 1.623 1.606 2.329 4.129 1.8 6.426-.603 2.611-2.389 4.494-4.115 6.315-1.069 1.128-2.079 2.193-2.785 3.391a1.005 1.005 0 0 1-.862.491zM32 35.672c-1.987 0-4-1.341-4-3.902s2.013-3.902 4-3.902 4 1.34 4 3.902-2.013 3.902-4 3.902zm0-5.804c-.923 0-2 .498-2 1.902 0 1.403 1.077 1.902 2 1.902s2-.499 2-1.902c0-1.404-1.077-1.902-2-1.902z"></path><path d="M29.007 32.585c-.045 0-.09-.003-.136-.009-8.158-1.112-15.388-5.837-19.837-12.963C6.46 15.49 5.065 10.788 5 6.014A1 1 0 0 1 5.986 5H6a1 1 0 0 1 1 .986c.061 4.409 1.351 8.754 3.731 12.567 4.072 6.523 10.954 11.024 18.409 12.041a1 1 0 0 1-.133 1.991zM34.994 32.585a1 1 0 0 1-.134-1.991c7.462-1.018 14.344-5.519 18.409-12.04 2.389-3.833 3.679-8.178 3.73-12.566A1.002 1.002 0 0 1 58 5h.012A1 1 0 0 1 59 6.012c-.056 4.754-1.45 9.458-4.033 13.6-4.376 7.021-11.792 11.867-19.837 12.964a1.047 1.047 0 0 1-.136.009z"></path></svg> 